<mxfile host="app.diagrams.net" agent="Mozilla/5.0 (Windows NT 10.0; Win64; x64) AppleWebKit/537.36 (KHTML, like Gecko) Chrome/129.0.0.0 Safari/537.36" version="24.7.16">
  <diagram name="Page-1" id="sF8PirXiMIkSj36UI4CH">
    <mxGraphModel dx="1100" dy="683" grid="0" gridSize="10" guides="1" tooltips="1" connect="1" arrows="1" fold="1" page="1" pageScale="1" pageWidth="850" pageHeight="1100" math="0" shadow="0">
      <root>
        <mxCell id="0" />
        <mxCell id="1" parent="0" />
        <mxCell id="75nrrcgFQ8LxuuI8bR8V-42" value="" style="edgeStyle=orthogonalEdgeStyle;rounded=0;orthogonalLoop=1;jettySize=auto;html=1;" edge="1" parent="1" source="75nrrcgFQ8LxuuI8bR8V-2" target="75nrrcgFQ8LxuuI8bR8V-3">
          <mxGeometry relative="1" as="geometry" />
        </mxCell>
        <mxCell id="75nrrcgFQ8LxuuI8bR8V-2" value="input&lt;div&gt;username&lt;/div&gt;" style="shape=parallelogram;html=1;strokeWidth=2;perimeter=parallelogramPerimeter;whiteSpace=wrap;rounded=1;arcSize=12;size=0.22499999999999998;" vertex="1" parent="1">
          <mxGeometry x="8" y="92" width="100" height="60" as="geometry" />
        </mxCell>
        <mxCell id="75nrrcgFQ8LxuuI8bR8V-46" value="" style="edgeStyle=orthogonalEdgeStyle;rounded=0;orthogonalLoop=1;jettySize=auto;html=1;" edge="1" parent="1" source="75nrrcgFQ8LxuuI8bR8V-3" target="75nrrcgFQ8LxuuI8bR8V-44">
          <mxGeometry relative="1" as="geometry" />
        </mxCell>
        <mxCell id="75nrrcgFQ8LxuuI8bR8V-3" value="input&lt;div&gt;password&lt;/div&gt;" style="shape=parallelogram;html=1;strokeWidth=2;perimeter=parallelogramPerimeter;whiteSpace=wrap;rounded=1;arcSize=12;size=0.23;direction=west;" vertex="1" parent="1">
          <mxGeometry x="8" y="173" width="100" height="60" as="geometry" />
        </mxCell>
        <mxCell id="75nrrcgFQ8LxuuI8bR8V-47" style="edgeStyle=orthogonalEdgeStyle;rounded=0;orthogonalLoop=1;jettySize=auto;html=1;" edge="1" parent="1" source="75nrrcgFQ8LxuuI8bR8V-16" target="75nrrcgFQ8LxuuI8bR8V-2">
          <mxGeometry relative="1" as="geometry" />
        </mxCell>
        <mxCell id="75nrrcgFQ8LxuuI8bR8V-48" style="edgeStyle=orthogonalEdgeStyle;rounded=0;orthogonalLoop=1;jettySize=auto;html=1;" edge="1" parent="1" source="75nrrcgFQ8LxuuI8bR8V-16" target="75nrrcgFQ8LxuuI8bR8V-3">
          <mxGeometry relative="1" as="geometry" />
        </mxCell>
        <mxCell id="75nrrcgFQ8LxuuI8bR8V-16" value="registrasi akun" style="text;strokeColor=none;align=center;fillColor=#000000;html=1;verticalAlign=middle;whiteSpace=wrap;rounded=0;fontColor=#FFFFFF;" vertex="1" parent="1">
          <mxGeometry x="150" y="145" width="60" height="30" as="geometry" />
        </mxCell>
        <mxCell id="75nrrcgFQ8LxuuI8bR8V-52" value="" style="edgeStyle=orthogonalEdgeStyle;rounded=0;orthogonalLoop=1;jettySize=auto;html=1;" edge="1" parent="1" source="75nrrcgFQ8LxuuI8bR8V-25" target="75nrrcgFQ8LxuuI8bR8V-26">
          <mxGeometry relative="1" as="geometry" />
        </mxCell>
        <mxCell id="75nrrcgFQ8LxuuI8bR8V-25" value="input&lt;div&gt;username&lt;/div&gt;" style="shape=parallelogram;html=1;strokeWidth=2;perimeter=parallelogramPerimeter;whiteSpace=wrap;rounded=1;arcSize=12;size=0.22499999999999998;" vertex="1" parent="1">
          <mxGeometry x="241" y="100" width="100" height="60" as="geometry" />
        </mxCell>
        <mxCell id="75nrrcgFQ8LxuuI8bR8V-152" value="" style="edgeStyle=orthogonalEdgeStyle;rounded=0;orthogonalLoop=1;jettySize=auto;html=1;" edge="1" parent="1" source="75nrrcgFQ8LxuuI8bR8V-26" target="75nrrcgFQ8LxuuI8bR8V-60">
          <mxGeometry relative="1" as="geometry" />
        </mxCell>
        <mxCell id="75nrrcgFQ8LxuuI8bR8V-26" value="input&lt;div&gt;password&lt;/div&gt;" style="shape=parallelogram;html=1;strokeWidth=2;perimeter=parallelogramPerimeter;whiteSpace=wrap;rounded=1;arcSize=12;size=0.23;direction=west;" vertex="1" parent="1">
          <mxGeometry x="241" y="184" width="100" height="60" as="geometry" />
        </mxCell>
        <mxCell id="75nrrcgFQ8LxuuI8bR8V-58" style="edgeStyle=orthogonalEdgeStyle;rounded=0;orthogonalLoop=1;jettySize=auto;html=1;entryX=1;entryY=0.5;entryDx=0;entryDy=0;" edge="1" parent="1" source="75nrrcgFQ8LxuuI8bR8V-30" target="75nrrcgFQ8LxuuI8bR8V-25">
          <mxGeometry relative="1" as="geometry" />
        </mxCell>
        <mxCell id="75nrrcgFQ8LxuuI8bR8V-59" style="edgeStyle=orthogonalEdgeStyle;rounded=0;orthogonalLoop=1;jettySize=auto;html=1;entryX=0;entryY=0.5;entryDx=0;entryDy=0;" edge="1" parent="1" source="75nrrcgFQ8LxuuI8bR8V-30" target="75nrrcgFQ8LxuuI8bR8V-26">
          <mxGeometry relative="1" as="geometry" />
        </mxCell>
        <mxCell id="75nrrcgFQ8LxuuI8bR8V-30" value="login" style="text;strokeColor=none;align=center;fillColor=#000000;html=1;verticalAlign=middle;whiteSpace=wrap;rounded=0;fontColor=#FFFFFF;" vertex="1" parent="1">
          <mxGeometry x="386" y="160" width="60" height="29" as="geometry" />
        </mxCell>
        <mxCell id="75nrrcgFQ8LxuuI8bR8V-38" style="edgeStyle=orthogonalEdgeStyle;rounded=0;orthogonalLoop=1;jettySize=auto;html=1;exitX=0.5;exitY=1;exitDx=0;exitDy=0;" edge="1" parent="1" source="75nrrcgFQ8LxuuI8bR8V-30" target="75nrrcgFQ8LxuuI8bR8V-30">
          <mxGeometry relative="1" as="geometry" />
        </mxCell>
        <mxCell id="75nrrcgFQ8LxuuI8bR8V-44" value="" style="verticalLabelPosition=bottom;verticalAlign=top;html=1;shape=mxgraph.flowchart.on-page_reference;fillColor=#dae8fc;strokeColor=#6c8ebf;" vertex="1" parent="1">
          <mxGeometry x="28" y="285" width="60" height="60" as="geometry" />
        </mxCell>
        <mxCell id="75nrrcgFQ8LxuuI8bR8V-110" value="" style="edgeStyle=orthogonalEdgeStyle;rounded=0;orthogonalLoop=1;jettySize=auto;html=1;" edge="1" parent="1" source="75nrrcgFQ8LxuuI8bR8V-49" target="75nrrcgFQ8LxuuI8bR8V-25">
          <mxGeometry relative="1" as="geometry" />
        </mxCell>
        <mxCell id="75nrrcgFQ8LxuuI8bR8V-49" value="" style="verticalLabelPosition=bottom;verticalAlign=top;html=1;shape=mxgraph.flowchart.on-page_reference;fillColor=#dae8fc;strokeColor=#6c8ebf;" vertex="1" parent="1">
          <mxGeometry x="261" y="10" width="60" height="60" as="geometry" />
        </mxCell>
        <mxCell id="75nrrcgFQ8LxuuI8bR8V-158" style="edgeStyle=orthogonalEdgeStyle;rounded=0;orthogonalLoop=1;jettySize=auto;html=1;exitX=1;exitY=0.5;exitDx=0;exitDy=0;exitPerimeter=0;" edge="1" parent="1" source="75nrrcgFQ8LxuuI8bR8V-60">
          <mxGeometry relative="1" as="geometry">
            <mxPoint x="382" y="421" as="targetPoint" />
            <Array as="points">
              <mxPoint x="364" y="349" />
              <mxPoint x="382" y="349" />
            </Array>
          </mxGeometry>
        </mxCell>
        <mxCell id="75nrrcgFQ8LxuuI8bR8V-159" value="YES" style="edgeLabel;html=1;align=center;verticalAlign=middle;resizable=0;points=[];" vertex="1" connectable="0" parent="75nrrcgFQ8LxuuI8bR8V-158">
          <mxGeometry x="0.2044" y="-1" relative="1" as="geometry">
            <mxPoint as="offset" />
          </mxGeometry>
        </mxCell>
        <mxCell id="75nrrcgFQ8LxuuI8bR8V-60" value="apakah&amp;nbsp;&lt;div&gt;username&amp;nbsp;&lt;span style=&quot;background-color: initial;&quot;&gt;dan&amp;nbsp;&lt;/span&gt;&lt;/div&gt;&lt;div&gt;password sesuai&lt;/div&gt;" style="strokeWidth=2;html=1;shape=mxgraph.flowchart.decision;whiteSpace=wrap;" vertex="1" parent="1">
          <mxGeometry x="218.25" y="285" width="145.5" height="131" as="geometry" />
        </mxCell>
        <mxCell id="75nrrcgFQ8LxuuI8bR8V-77" value="" style="edgeStyle=orthogonalEdgeStyle;rounded=0;orthogonalLoop=1;jettySize=auto;html=1;" edge="1" parent="1" source="75nrrcgFQ8LxuuI8bR8V-73" target="75nrrcgFQ8LxuuI8bR8V-74">
          <mxGeometry relative="1" as="geometry" />
        </mxCell>
        <mxCell id="75nrrcgFQ8LxuuI8bR8V-73" value="input&lt;div&gt;barang&lt;/div&gt;" style="shape=parallelogram;html=1;strokeWidth=2;perimeter=parallelogramPerimeter;whiteSpace=wrap;rounded=1;arcSize=12;size=0.23;" vertex="1" parent="1">
          <mxGeometry x="315.25" y="422" width="100" height="60" as="geometry" />
        </mxCell>
        <mxCell id="75nrrcgFQ8LxuuI8bR8V-79" value="" style="edgeStyle=orthogonalEdgeStyle;rounded=0;orthogonalLoop=1;jettySize=auto;html=1;" edge="1" parent="1" source="75nrrcgFQ8LxuuI8bR8V-74" target="75nrrcgFQ8LxuuI8bR8V-75">
          <mxGeometry relative="1" as="geometry" />
        </mxCell>
        <mxCell id="75nrrcgFQ8LxuuI8bR8V-74" value="input&lt;div&gt;harga&lt;/div&gt;" style="shape=parallelogram;html=1;strokeWidth=2;perimeter=parallelogramPerimeter;whiteSpace=wrap;rounded=1;arcSize=12;size=0.23;" vertex="1" parent="1">
          <mxGeometry x="315.25" y="516" width="100" height="60" as="geometry" />
        </mxCell>
        <mxCell id="75nrrcgFQ8LxuuI8bR8V-81" value="" style="edgeStyle=orthogonalEdgeStyle;rounded=0;orthogonalLoop=1;jettySize=auto;html=1;" edge="1" parent="1" source="75nrrcgFQ8LxuuI8bR8V-75" target="75nrrcgFQ8LxuuI8bR8V-80">
          <mxGeometry relative="1" as="geometry" />
        </mxCell>
        <mxCell id="75nrrcgFQ8LxuuI8bR8V-75" value="input&lt;div&gt;jumlah&lt;/div&gt;" style="shape=parallelogram;html=1;strokeWidth=2;perimeter=parallelogramPerimeter;whiteSpace=wrap;rounded=1;arcSize=12;size=0.23;" vertex="1" parent="1">
          <mxGeometry x="315.25" y="605" width="100" height="60" as="geometry" />
        </mxCell>
        <mxCell id="75nrrcgFQ8LxuuI8bR8V-84" value="" style="edgeStyle=orthogonalEdgeStyle;rounded=0;orthogonalLoop=1;jettySize=auto;html=1;" edge="1" parent="1" source="75nrrcgFQ8LxuuI8bR8V-80" target="75nrrcgFQ8LxuuI8bR8V-83">
          <mxGeometry relative="1" as="geometry" />
        </mxCell>
        <mxCell id="75nrrcgFQ8LxuuI8bR8V-80" value="jumlah barang * harga barang" style="rounded=1;whiteSpace=wrap;html=1;absoluteArcSize=1;arcSize=14;strokeWidth=2;" vertex="1" parent="1">
          <mxGeometry x="267.25" y="702" width="196" height="58" as="geometry" />
        </mxCell>
        <mxCell id="75nrrcgFQ8LxuuI8bR8V-87" style="edgeStyle=orthogonalEdgeStyle;rounded=0;orthogonalLoop=1;jettySize=auto;html=1;entryX=0.5;entryY=0;entryDx=0;entryDy=0;" edge="1" parent="1" source="75nrrcgFQ8LxuuI8bR8V-83" target="75nrrcgFQ8LxuuI8bR8V-85">
          <mxGeometry relative="1" as="geometry">
            <mxPoint x="226.25" y="880" as="targetPoint" />
          </mxGeometry>
        </mxCell>
        <mxCell id="75nrrcgFQ8LxuuI8bR8V-88" style="edgeStyle=orthogonalEdgeStyle;rounded=0;orthogonalLoop=1;jettySize=auto;html=1;entryX=0.5;entryY=0;entryDx=0;entryDy=0;" edge="1" parent="1" source="75nrrcgFQ8LxuuI8bR8V-83" target="75nrrcgFQ8LxuuI8bR8V-86">
          <mxGeometry relative="1" as="geometry">
            <Array as="points">
              <mxPoint x="507.25" y="852" />
              <mxPoint x="507.25" y="878" />
            </Array>
          </mxGeometry>
        </mxCell>
        <mxCell id="75nrrcgFQ8LxuuI8bR8V-83" value="apakah&lt;div&gt;&amp;nbsp;total harga&lt;/div&gt;&lt;div&gt;&amp;nbsp;&amp;gt;= 250000&lt;/div&gt;" style="rhombus;whiteSpace=wrap;html=1;rounded=1;arcSize=14;strokeWidth=2;" vertex="1" parent="1">
          <mxGeometry x="303.75" y="792" width="123" height="121" as="geometry" />
        </mxCell>
        <mxCell id="75nrrcgFQ8LxuuI8bR8V-91" value="" style="edgeStyle=orthogonalEdgeStyle;rounded=0;orthogonalLoop=1;jettySize=auto;html=1;" edge="1" parent="1" source="75nrrcgFQ8LxuuI8bR8V-85" target="75nrrcgFQ8LxuuI8bR8V-90">
          <mxGeometry relative="1" as="geometry" />
        </mxCell>
        <mxCell id="75nrrcgFQ8LxuuI8bR8V-85" value="harga total - harga diskon" style="rounded=1;whiteSpace=wrap;html=1;absoluteArcSize=1;arcSize=14;strokeWidth=2;" vertex="1" parent="1">
          <mxGeometry x="143.25" y="888" width="145" height="45" as="geometry" />
        </mxCell>
        <mxCell id="75nrrcgFQ8LxuuI8bR8V-151" style="edgeStyle=orthogonalEdgeStyle;rounded=0;orthogonalLoop=1;jettySize=auto;html=1;" edge="1" parent="1" source="75nrrcgFQ8LxuuI8bR8V-86" target="75nrrcgFQ8LxuuI8bR8V-100">
          <mxGeometry relative="1" as="geometry">
            <Array as="points">
              <mxPoint x="507" y="998" />
              <mxPoint x="368" y="998" />
            </Array>
          </mxGeometry>
        </mxCell>
        <mxCell id="75nrrcgFQ8LxuuI8bR8V-86" value="output&lt;div&gt;anda tidak&amp;nbsp;&lt;/div&gt;&lt;div&gt;mendapat&lt;/div&gt;&lt;div&gt;diskon&lt;/div&gt;" style="shape=parallelogram;html=1;strokeWidth=2;perimeter=parallelogramPerimeter;whiteSpace=wrap;rounded=1;arcSize=12;size=0.23;" vertex="1" parent="1">
          <mxGeometry x="457.25" y="878" width="100" height="60" as="geometry" />
        </mxCell>
        <mxCell id="75nrrcgFQ8LxuuI8bR8V-89" style="edgeStyle=orthogonalEdgeStyle;rounded=0;orthogonalLoop=1;jettySize=auto;html=1;exitX=0.5;exitY=1;exitDx=0;exitDy=0;" edge="1" parent="1" source="75nrrcgFQ8LxuuI8bR8V-85" target="75nrrcgFQ8LxuuI8bR8V-85">
          <mxGeometry relative="1" as="geometry" />
        </mxCell>
        <mxCell id="75nrrcgFQ8LxuuI8bR8V-150" style="edgeStyle=orthogonalEdgeStyle;rounded=0;orthogonalLoop=1;jettySize=auto;html=1;" edge="1" parent="1" source="75nrrcgFQ8LxuuI8bR8V-90" target="75nrrcgFQ8LxuuI8bR8V-100">
          <mxGeometry relative="1" as="geometry" />
        </mxCell>
        <mxCell id="75nrrcgFQ8LxuuI8bR8V-90" value="output&lt;div&gt;harga barang&amp;nbsp;&lt;/div&gt;&lt;div&gt;setelah discon&lt;/div&gt;" style="shape=parallelogram;html=1;strokeWidth=2;perimeter=parallelogramPerimeter;whiteSpace=wrap;rounded=1;arcSize=12;size=0.23;" vertex="1" parent="1">
          <mxGeometry x="145.25" y="968" width="140" height="60" as="geometry" />
        </mxCell>
        <mxCell id="75nrrcgFQ8LxuuI8bR8V-97" value="YES" style="text;html=1;align=center;verticalAlign=middle;resizable=0;points=[];autosize=1;strokeColor=none;fillColor=none;" vertex="1" parent="1">
          <mxGeometry x="236.25" y="834" width="42" height="26" as="geometry" />
        </mxCell>
        <mxCell id="75nrrcgFQ8LxuuI8bR8V-98" value="NO" style="text;html=1;align=center;verticalAlign=middle;resizable=0;points=[];autosize=1;strokeColor=none;fillColor=none;" vertex="1" parent="1">
          <mxGeometry x="435.25" y="832" width="36" height="26" as="geometry" />
        </mxCell>
        <mxCell id="75nrrcgFQ8LxuuI8bR8V-121" style="edgeStyle=orthogonalEdgeStyle;rounded=0;orthogonalLoop=1;jettySize=auto;html=1;" edge="1" parent="1" source="75nrrcgFQ8LxuuI8bR8V-99" target="75nrrcgFQ8LxuuI8bR8V-114">
          <mxGeometry relative="1" as="geometry" />
        </mxCell>
        <mxCell id="75nrrcgFQ8LxuuI8bR8V-148" value="YES" style="edgeLabel;html=1;align=center;verticalAlign=middle;resizable=0;points=[];" vertex="1" connectable="0" parent="75nrrcgFQ8LxuuI8bR8V-121">
          <mxGeometry x="0.0488" y="1" relative="1" as="geometry">
            <mxPoint as="offset" />
          </mxGeometry>
        </mxCell>
        <mxCell id="75nrrcgFQ8LxuuI8bR8V-99" value="lanjutkan&lt;div&gt;transaksi&lt;/div&gt;" style="strokeWidth=2;html=1;shape=mxgraph.flowchart.decision;whiteSpace=wrap;" vertex="1" parent="1">
          <mxGeometry x="597" y="92" width="100" height="100" as="geometry" />
        </mxCell>
        <mxCell id="75nrrcgFQ8LxuuI8bR8V-100" value="" style="verticalLabelPosition=bottom;verticalAlign=top;html=1;shape=mxgraph.flowchart.on-page_reference;direction=south;fillColor=#f8cecc;strokeColor=#b85450;" vertex="1" parent="1">
          <mxGeometry x="336" y="1031" width="64" height="56" as="geometry" />
        </mxCell>
        <mxCell id="75nrrcgFQ8LxuuI8bR8V-107" value="" style="verticalLabelPosition=bottom;verticalAlign=top;html=1;shape=mxgraph.flowchart.on-page_reference;fillColor=#dae8fc;strokeColor=#6c8ebf;" vertex="1" parent="1">
          <mxGeometry x="123" y="401" width="60" height="60" as="geometry" />
        </mxCell>
        <mxCell id="75nrrcgFQ8LxuuI8bR8V-112" value="" style="edgeStyle=orthogonalEdgeStyle;rounded=0;orthogonalLoop=1;jettySize=auto;html=1;" edge="1" parent="1" source="75nrrcgFQ8LxuuI8bR8V-111" target="75nrrcgFQ8LxuuI8bR8V-99">
          <mxGeometry relative="1" as="geometry" />
        </mxCell>
        <mxCell id="75nrrcgFQ8LxuuI8bR8V-111" value="" style="verticalLabelPosition=bottom;verticalAlign=top;html=1;shape=mxgraph.flowchart.on-page_reference;direction=south;fillColor=#f8cecc;strokeColor=#b85450;" vertex="1" parent="1">
          <mxGeometry x="617.5" y="10" width="59" height="56" as="geometry" />
        </mxCell>
        <mxCell id="75nrrcgFQ8LxuuI8bR8V-113" value="transaksi&lt;div&gt;selesai&lt;/div&gt;" style="shape=parallelogram;html=1;strokeWidth=2;perimeter=parallelogramPerimeter;whiteSpace=wrap;rounded=1;arcSize=12;size=0.23;" vertex="1" parent="1">
          <mxGeometry x="647" y="241.5" width="100" height="60" as="geometry" />
        </mxCell>
        <mxCell id="75nrrcgFQ8LxuuI8bR8V-141" value="" style="edgeStyle=orthogonalEdgeStyle;rounded=0;orthogonalLoop=1;jettySize=auto;html=1;" edge="1" parent="1" source="75nrrcgFQ8LxuuI8bR8V-114" target="75nrrcgFQ8LxuuI8bR8V-140">
          <mxGeometry relative="1" as="geometry" />
        </mxCell>
        <mxCell id="75nrrcgFQ8LxuuI8bR8V-114" value="output&lt;div&gt;transaksi&lt;/div&gt;&lt;div&gt;dilanjutkan&lt;/div&gt;" style="shape=parallelogram;html=1;strokeWidth=2;perimeter=parallelogramPerimeter;whiteSpace=wrap;rounded=1;arcSize=12;size=0.23;" vertex="1" parent="1">
          <mxGeometry x="535" y="241.5" width="100" height="60" as="geometry" />
        </mxCell>
        <mxCell id="75nrrcgFQ8LxuuI8bR8V-120" style="edgeStyle=orthogonalEdgeStyle;rounded=0;orthogonalLoop=1;jettySize=auto;html=1;entryX=0.65;entryY=-0.017;entryDx=0;entryDy=0;entryPerimeter=0;" edge="1" parent="1" source="75nrrcgFQ8LxuuI8bR8V-99" target="75nrrcgFQ8LxuuI8bR8V-113">
          <mxGeometry relative="1" as="geometry" />
        </mxCell>
        <mxCell id="75nrrcgFQ8LxuuI8bR8V-146" value="NO" style="edgeLabel;html=1;align=center;verticalAlign=middle;resizable=0;points=[];" vertex="1" connectable="0" parent="75nrrcgFQ8LxuuI8bR8V-120">
          <mxGeometry x="0.1667" y="1" relative="1" as="geometry">
            <mxPoint as="offset" />
          </mxGeometry>
        </mxCell>
        <mxCell id="75nrrcgFQ8LxuuI8bR8V-137" value="end" style="strokeWidth=2;html=1;shape=mxgraph.flowchart.terminator;whiteSpace=wrap;" vertex="1" parent="1">
          <mxGeometry x="647" y="429" width="100" height="60" as="geometry" />
        </mxCell>
        <mxCell id="75nrrcgFQ8LxuuI8bR8V-138" style="edgeStyle=orthogonalEdgeStyle;rounded=0;orthogonalLoop=1;jettySize=auto;html=1;entryX=0.5;entryY=0;entryDx=0;entryDy=0;entryPerimeter=0;" edge="1" parent="1" source="75nrrcgFQ8LxuuI8bR8V-113" target="75nrrcgFQ8LxuuI8bR8V-137">
          <mxGeometry relative="1" as="geometry" />
        </mxCell>
        <mxCell id="75nrrcgFQ8LxuuI8bR8V-140" value="" style="verticalLabelPosition=bottom;verticalAlign=top;html=1;shape=mxgraph.flowchart.on-page_reference;fillColor=#dae8fc;strokeColor=#6c8ebf;" vertex="1" parent="1">
          <mxGeometry x="555" y="326.5" width="60" height="60" as="geometry" />
        </mxCell>
        <mxCell id="75nrrcgFQ8LxuuI8bR8V-144" style="edgeStyle=orthogonalEdgeStyle;rounded=0;orthogonalLoop=1;jettySize=auto;html=1;" edge="1" parent="1" source="75nrrcgFQ8LxuuI8bR8V-142" target="75nrrcgFQ8LxuuI8bR8V-2">
          <mxGeometry relative="1" as="geometry" />
        </mxCell>
        <mxCell id="75nrrcgFQ8LxuuI8bR8V-142" value="start" style="strokeWidth=2;html=1;shape=mxgraph.flowchart.terminator;whiteSpace=wrap;" vertex="1" parent="1">
          <mxGeometry x="8" y="6" width="100" height="60" as="geometry" />
        </mxCell>
        <mxCell id="75nrrcgFQ8LxuuI8bR8V-154" style="edgeStyle=orthogonalEdgeStyle;rounded=0;orthogonalLoop=1;jettySize=auto;html=1;entryX=0.5;entryY=0;entryDx=0;entryDy=0;entryPerimeter=0;" edge="1" parent="1" source="75nrrcgFQ8LxuuI8bR8V-60" target="75nrrcgFQ8LxuuI8bR8V-107">
          <mxGeometry relative="1" as="geometry" />
        </mxCell>
        <mxCell id="75nrrcgFQ8LxuuI8bR8V-155" value="NO" style="edgeLabel;html=1;align=center;verticalAlign=middle;resizable=0;points=[];" vertex="1" connectable="0" parent="75nrrcgFQ8LxuuI8bR8V-154">
          <mxGeometry x="-0.4973" y="-1" relative="1" as="geometry">
            <mxPoint as="offset" />
          </mxGeometry>
        </mxCell>
      </root>
    </mxGraphModel>
  </diagram>
</mxfile>
